<?xml version="1.0" encoding="UTF-8" standalone="no"?>
<!-- Created with Inkscape (http://www.inkscape.org/) -->

<svg
   xmlns:dc="http://purl.org/dc/elements/1.1/"
   xmlns:cc="http://creativecommons.org/ns#"
   xmlns:rdf="http://www.w3.org/1999/02/22-rdf-syntax-ns#"
   xmlns:svg="http://www.w3.org/2000/svg"
   xmlns="http://www.w3.org/2000/svg"
   xmlns:sodipodi="http://sodipodi.sourceforge.net/DTD/sodipodi-0.dtd"
   xmlns:inkscape="http://www.inkscape.org/namespaces/inkscape"
   width="128"
   height="128"
   viewBox="0 0 128 128"
   id="svg2"
   version="1.1"
   inkscape:version="0.91 r13725"
   sodipodi:docname="logo-light-selected.svg"
   inkscape:export-filename="/home/muji/git/tmpfs.org/assets/img/logo-dark.png"
   inkscape:export-xdpi="22.5"
   inkscape:export-ydpi="22.5">
  <defs
     id="defs4" />
  <sodipodi:namedview
     id="base"
     pagecolor="#000000"
     bordercolor="#666666"
     borderopacity="1.0"
     inkscape:pageopacity="0"
     inkscape:pageshadow="2"
     inkscape:zoom="1.4142136"
     inkscape:cx="100.29289"
     inkscape:cy="-3.991378"
     inkscape:document-units="px"
     inkscape:current-layer="layer1"
     showgrid="false"
     units="px"
     inkscape:showpageshadow="false"
     borderlayer="true"
     inkscape:window-width="1680"
     inkscape:window-height="1026"
     inkscape:window-x="0"
     inkscape:window-y="24"
     inkscape:window-maximized="1">
    <inkscape:grid
       type="xygrid"
       id="grid3336"
       spacingx="8"
       spacingy="8" />
  </sodipodi:namedview>
  <metadata
     id="metadata7">
    <rdf:RDF>
      <cc:Work
         rdf:about="">
        <dc:format>image/svg+xml</dc:format>
        <dc:type
           rdf:resource="http://purl.org/dc/dcmitype/StillImage" />
        <dc:title></dc:title>
      </cc:Work>
    </rdf:RDF>
  </metadata>
  <g
     inkscape:label="Layer 1"
     inkscape:groupmode="layer"
     id="layer1"
     transform="translate(0,-924.3622)">
    <circle
       style="fill:#d33682;fill-opacity:1;stroke:none;stroke-width:1;stroke-linejoin:miter;stroke-miterlimit:4;stroke-dasharray:none;stroke-opacity:1"
       id="path4868"
       cx="64"
       cy="-988.36218"
       transform="scale(1,-1)"
       r="48" />
    <path
       style="fill:#fdf6e3;fill-opacity:1;stroke:none;stroke-width:5.11999989;stroke-linejoin:round;stroke-miterlimit:4;stroke-dasharray:none;stroke-opacity:1"
       d="m 64,924.36219 a 64,64 0 0 0 -64,64 64,64 0 0 0 64,64.00001 64,64 0 0 0 64,-64.00001 64,64 0 0 0 -64,-64 z m -11.175781,33.78516 5.640625,0 0,5.36523 -5.640625,0 c -1.572266,0 -2.927084,0.56966 -4.066407,1.70899 -1.116536,1.11653 -1.675781,2.80273 -1.675781,5.05859 l 0,8.0332 c 0,2.3698 -0.638021,4.52214 -1.914062,6.45899 -1.344401,2.07357 -3.134115,3.39518 -5.367188,3.96484 2.369792,0.75195 4.205078,2.11914 5.503907,4.10161 1.184895,1.8457 1.777343,3.9316 1.777343,6.2558 l 0,8.1348 c 0,2.2558 0.559245,3.942 1.675781,5.0586 1.139323,1.1393 2.494141,1.709 4.066407,1.709 l 5.640625,0 0,5.3652 -5.640625,0 c -3.235677,0 -6.003255,-1.1497 -8.304688,-3.4512 -2.301432,-2.2786 -3.453125,-5.3776 -3.453125,-9.2969 l 0,-7.5878 c 0,-2.0053 -0.695963,-3.7142 -2.085937,-5.127 -1.389974,-1.4128 -3.063802,-2.11914 -5.023438,-2.11914 l -0.957031,0 0,-6.11914 0.921875,0 c 1.959635,0 3.635417,-0.70638 5.025391,-2.11914 1.41276,-1.41276 2.11914,-3.09896 2.11914,-5.05859 l 0,-7.55274 c 0,-3.91927 1.151693,-7.0306 3.453125,-9.33203 2.301433,-2.30143 5.069011,-3.45117 8.304688,-3.45117 z m 16.40625,0 5.640625,0 c 3.235677,0 6.003255,1.14974 8.304687,3.45117 2.301433,2.30143 3.453125,5.41276 3.453125,9.33203 l 0,7.55274 c 0,1.95963 0.694011,3.64583 2.083985,5.05859 1.41276,1.41276 3.088541,2.11914 5.02539,2.11914 l 0.957031,0 0,6.11914 -0.992187,0 c -1.936849,0 -3.60026,0.70634 -4.990234,2.11914 -1.389974,1.4128 -2.083985,3.1217 -2.083985,5.127 l 0,7.5878 c 0,3.9193 -1.151692,7.0183 -3.453125,9.2969 -2.301432,2.3015 -5.06901,3.4512 -8.304687,3.4512 l -5.640625,0 0,-5.3652 5.640625,0 c 1.572265,0 2.914713,-0.5697 4.03125,-1.709 1.139323,-1.1166 1.710937,-2.8028 1.710937,-5.0586 l 0,-8.1348 c 0,-2.3242 0.592448,-4.4101 1.777344,-6.2558 1.298828,-1.98247 3.132161,-3.34966 5.501953,-4.10161 -2.233073,-0.56966 -4.020833,-1.89127 -5.365234,-3.96484 -1.276042,-1.93685 -1.914063,-4.08919 -1.914063,-6.45899 l 0,-8.0332 c 0,-2.25586 -0.571614,-3.94206 -1.710937,-5.05859 -1.116537,-1.13933 -2.458985,-1.70899 -4.03125,-1.70899 l -5.640625,0 0,-5.36523 z"
       id="path3340"
       inkscape:connector-curvature="0" />
  </g>
</svg>
