<?xml version="1.0" encoding="UTF-8" standalone="no"?>
<!-- Created with Inkscape (http://www.inkscape.org/) -->

<svg
   xmlns:dc="http://purl.org/dc/elements/1.1/"
   xmlns:cc="http://creativecommons.org/ns#"
   xmlns:rdf="http://www.w3.org/1999/02/22-rdf-syntax-ns#"
   xmlns:svg="http://www.w3.org/2000/svg"
   xmlns="http://www.w3.org/2000/svg"
   xmlns:sodipodi="http://sodipodi.sourceforge.net/DTD/sodipodi-0.dtd"
   xmlns:inkscape="http://www.inkscape.org/namespaces/inkscape"
   width="128"
   height="128"
   viewBox="0 0 128 128"
   id="svg2"
   version="1.1"
   inkscape:version="0.91 r13725"
   sodipodi:docname="logo-light.svg"
   inkscape:export-filename="/home/muji/git/tmpfs.org/assets/img/logo-dark.png"
   inkscape:export-xdpi="22.5"
   inkscape:export-ydpi="22.5">
  <defs
     id="defs4" />
  <sodipodi:namedview
     id="base"
     pagecolor="#000000"
     bordercolor="#666666"
     borderopacity="1.0"
     inkscape:pageopacity="0"
     inkscape:pageshadow="2"
     inkscape:zoom="1.4142136"
     inkscape:cx="100.29289"
     inkscape:cy="-3.991378"
     inkscape:document-units="px"
     inkscape:current-layer="layer1"
     showgrid="false"
     units="px"
     inkscape:showpageshadow="false"
     borderlayer="true"
     inkscape:window-width="1680"
     inkscape:window-height="1026"
     inkscape:window-x="0"
     inkscape:window-y="24"
     inkscape:window-maximized="1">
    <inkscape:grid
       type="xygrid"
       id="grid3336"
       spacingx="8"
       spacingy="8" />
  </sodipodi:namedview>
  <metadata
     id="metadata7">
    <rdf:RDF>
      <cc:Work
         rdf:about="">
        <dc:format>image/svg+xml</dc:format>
        <dc:type
           rdf:resource="http://purl.org/dc/dcmitype/StillImage" />
        <dc:title></dc:title>
      </cc:Work>
    </rdf:RDF>
  </metadata>
  <g
     inkscape:label="Layer 1"
     inkscape:groupmode="layer"
     id="layer1"
     transform="translate(0,-924.3622)">
    <path
       style="fill:#fdf6e3;fill-opacity:1;stroke:none;stroke-width:5.11999989;stroke-linejoin:round;stroke-miterlimit:4;stroke-dasharray:none;stroke-opacity:1"
       d="M 64 0 A 64 64 0 0 0 0 64 A 64 64 0 0 0 64 128 A 64 64 0 0 0 128 64 A 64 64 0 0 0 64 0 z M 52.824219 33.785156 L 58.464844 33.785156 L 58.464844 39.150391 L 52.824219 39.150391 C 51.251953 39.150391 49.897135 39.720052 48.757812 40.859375 C 47.641276 41.975911 47.082031 43.662109 47.082031 45.917969 L 47.082031 53.951172 C 47.082031 56.320964 46.44401 58.473307 45.167969 60.410156 C 43.823568 62.483724 42.033854 63.805339 39.800781 64.375 C 42.170573 65.126953 44.005859 66.494141 45.304688 68.476562 C 46.489583 70.322266 47.082031 72.408203 47.082031 74.732422 L 47.082031 82.867188 C 47.082031 85.123047 47.641276 86.809245 48.757812 87.925781 C 49.897135 89.065104 51.251953 89.634766 52.824219 89.634766 L 58.464844 89.634766 L 58.464844 95 L 52.824219 95 C 49.588542 95 46.820964 93.85026 44.519531 91.548828 C 42.218099 89.270182 41.066406 86.171224 41.066406 82.251953 L 41.066406 74.664062 C 41.066406 72.658854 40.370443 70.94987 38.980469 69.537109 C 37.590495 68.124349 35.916667 67.417969 33.957031 67.417969 L 33 67.417969 L 33 61.298828 L 33.921875 61.298828 C 35.88151 61.298828 37.557292 60.592448 38.947266 59.179688 C 40.360026 57.766927 41.066406 56.080729 41.066406 54.121094 L 41.066406 46.568359 C 41.066406 42.649089 42.218099 39.53776 44.519531 37.236328 C 46.820964 34.934896 49.588542 33.785156 52.824219 33.785156 z M 69.230469 33.785156 L 74.871094 33.785156 C 78.106771 33.785156 80.874349 34.934896 83.175781 37.236328 C 85.477214 39.53776 86.628906 42.649089 86.628906 46.568359 L 86.628906 54.121094 C 86.628906 56.080729 87.322917 57.766927 88.712891 59.179688 C 90.125651 60.592448 91.801432 61.298828 93.738281 61.298828 L 94.695312 61.298828 L 94.695312 67.417969 L 93.703125 67.417969 C 91.766276 67.417969 90.102865 68.124349 88.712891 69.537109 C 87.322917 70.94987 86.628906 72.658854 86.628906 74.664062 L 86.628906 82.251953 C 86.628906 86.171224 85.477214 89.270182 83.175781 91.548828 C 80.874349 93.85026 78.106771 95 74.871094 95 L 69.230469 95 L 69.230469 89.634766 L 74.871094 89.634766 C 76.443359 89.634766 77.785807 89.065104 78.902344 87.925781 C 80.041667 86.809245 80.613281 85.123047 80.613281 82.867188 L 80.613281 74.732422 C 80.613281 72.408203 81.205729 70.322266 82.390625 68.476562 C 83.689453 66.494141 85.522786 65.126953 87.892578 64.375 C 85.659505 63.805339 83.871745 62.483724 82.527344 60.410156 C 81.251302 58.473307 80.613281 56.320964 80.613281 53.951172 L 80.613281 45.917969 C 80.613281 43.662109 80.041667 41.975911 78.902344 40.859375 C 77.785807 39.720052 76.443359 39.150391 74.871094 39.150391 L 69.230469 39.150391 L 69.230469 33.785156 z "
       transform="translate(0,924.3622)"
       id="path3340" />
  </g>
</svg>
